%TF.GenerationSoftware,KiCad,Pcbnew,10.0.1*%
%TF.CreationDate,2026-05-04T19:26:38-07:00*%
%TF.ProjectId,555chaser,35353563-6861-4736-9572-2e6b69636164,rev?*%
%TF.SameCoordinates,Original*%
%TF.FileFunction,Legend,Top*%
%TF.FilePolarity,Positive*%
%FSLAX46Y46*%
G04 Gerber Fmt 4.6, Leading zero omitted, Abs format (unit mm)*
G04 Created by KiCad (PCBNEW 10.0.1) date 2026-05-04 19:26:38*
%MOMM*%
%LPD*%
G01*
G04 APERTURE LIST*
%ADD10C,0.100000*%
%ADD11C,0.150000*%
%ADD12C,0.120000*%
%ADD13C,0.152400*%
G04 APERTURE END LIST*
D10*
X119803884Y-122705752D02*
X119803884Y-123705752D01*
X119803884Y-122753371D02*
X119899122Y-122705752D01*
X119899122Y-122705752D02*
X120089598Y-122705752D01*
X120089598Y-122705752D02*
X120184836Y-122753371D01*
X120184836Y-122753371D02*
X120232455Y-122800990D01*
X120232455Y-122800990D02*
X120280074Y-122896228D01*
X120280074Y-122896228D02*
X120280074Y-123181942D01*
X120280074Y-123181942D02*
X120232455Y-123277180D01*
X120232455Y-123277180D02*
X120184836Y-123324800D01*
X120184836Y-123324800D02*
X120089598Y-123372419D01*
X120089598Y-123372419D02*
X119899122Y-123372419D01*
X119899122Y-123372419D02*
X119803884Y-123324800D01*
X121137217Y-123372419D02*
X121137217Y-122848609D01*
X121137217Y-122848609D02*
X121089598Y-122753371D01*
X121089598Y-122753371D02*
X120994360Y-122705752D01*
X120994360Y-122705752D02*
X120803884Y-122705752D01*
X120803884Y-122705752D02*
X120708646Y-122753371D01*
X121137217Y-123324800D02*
X121041979Y-123372419D01*
X121041979Y-123372419D02*
X120803884Y-123372419D01*
X120803884Y-123372419D02*
X120708646Y-123324800D01*
X120708646Y-123324800D02*
X120661027Y-123229561D01*
X120661027Y-123229561D02*
X120661027Y-123134323D01*
X120661027Y-123134323D02*
X120708646Y-123039085D01*
X120708646Y-123039085D02*
X120803884Y-122991466D01*
X120803884Y-122991466D02*
X121041979Y-122991466D01*
X121041979Y-122991466D02*
X121137217Y-122943847D01*
X122041979Y-122705752D02*
X122041979Y-123372419D01*
X121613408Y-122705752D02*
X121613408Y-123229561D01*
X121613408Y-123229561D02*
X121661027Y-123324800D01*
X121661027Y-123324800D02*
X121756265Y-123372419D01*
X121756265Y-123372419D02*
X121899122Y-123372419D01*
X121899122Y-123372419D02*
X121994360Y-123324800D01*
X121994360Y-123324800D02*
X122041979Y-123277180D01*
X122661027Y-123372419D02*
X122565789Y-123324800D01*
X122565789Y-123324800D02*
X122518170Y-123229561D01*
X122518170Y-123229561D02*
X122518170Y-122372419D01*
X123946742Y-123372419D02*
X123851504Y-123324800D01*
X123851504Y-123324800D02*
X123803885Y-123229561D01*
X123803885Y-123229561D02*
X123803885Y-122372419D01*
X124470552Y-123372419D02*
X124375314Y-123324800D01*
X124375314Y-123324800D02*
X124327695Y-123277180D01*
X124327695Y-123277180D02*
X124280076Y-123181942D01*
X124280076Y-123181942D02*
X124280076Y-122896228D01*
X124280076Y-122896228D02*
X124327695Y-122800990D01*
X124327695Y-122800990D02*
X124375314Y-122753371D01*
X124375314Y-122753371D02*
X124470552Y-122705752D01*
X124470552Y-122705752D02*
X124613409Y-122705752D01*
X124613409Y-122705752D02*
X124708647Y-122753371D01*
X124708647Y-122753371D02*
X124756266Y-122800990D01*
X124756266Y-122800990D02*
X124803885Y-122896228D01*
X124803885Y-122896228D02*
X124803885Y-123181942D01*
X124803885Y-123181942D02*
X124756266Y-123277180D01*
X124756266Y-123277180D02*
X124708647Y-123324800D01*
X124708647Y-123324800D02*
X124613409Y-123372419D01*
X124613409Y-123372419D02*
X124470552Y-123372419D01*
X125232457Y-122705752D02*
X125232457Y-123705752D01*
X125232457Y-122753371D02*
X125327695Y-122705752D01*
X125327695Y-122705752D02*
X125518171Y-122705752D01*
X125518171Y-122705752D02*
X125613409Y-122753371D01*
X125613409Y-122753371D02*
X125661028Y-122800990D01*
X125661028Y-122800990D02*
X125708647Y-122896228D01*
X125708647Y-122896228D02*
X125708647Y-123181942D01*
X125708647Y-123181942D02*
X125661028Y-123277180D01*
X125661028Y-123277180D02*
X125613409Y-123324800D01*
X125613409Y-123324800D02*
X125518171Y-123372419D01*
X125518171Y-123372419D02*
X125327695Y-123372419D01*
X125327695Y-123372419D02*
X125232457Y-123324800D01*
X126518171Y-123324800D02*
X126422933Y-123372419D01*
X126422933Y-123372419D02*
X126232457Y-123372419D01*
X126232457Y-123372419D02*
X126137219Y-123324800D01*
X126137219Y-123324800D02*
X126089600Y-123229561D01*
X126089600Y-123229561D02*
X126089600Y-122848609D01*
X126089600Y-122848609D02*
X126137219Y-122753371D01*
X126137219Y-122753371D02*
X126232457Y-122705752D01*
X126232457Y-122705752D02*
X126422933Y-122705752D01*
X126422933Y-122705752D02*
X126518171Y-122753371D01*
X126518171Y-122753371D02*
X126565790Y-122848609D01*
X126565790Y-122848609D02*
X126565790Y-122943847D01*
X126565790Y-122943847D02*
X126089600Y-123039085D01*
X126899124Y-122705752D02*
X127422933Y-122705752D01*
X127422933Y-122705752D02*
X126899124Y-123372419D01*
X126899124Y-123372419D02*
X127422933Y-123372419D01*
X128470553Y-122705752D02*
X128661029Y-123372419D01*
X128661029Y-123372419D02*
X128851505Y-122896228D01*
X128851505Y-122896228D02*
X129041981Y-123372419D01*
X129041981Y-123372419D02*
X129232457Y-122705752D01*
X130041981Y-123372419D02*
X130041981Y-122848609D01*
X130041981Y-122848609D02*
X129994362Y-122753371D01*
X129994362Y-122753371D02*
X129899124Y-122705752D01*
X129899124Y-122705752D02*
X129708648Y-122705752D01*
X129708648Y-122705752D02*
X129613410Y-122753371D01*
X130041981Y-123324800D02*
X129946743Y-123372419D01*
X129946743Y-123372419D02*
X129708648Y-123372419D01*
X129708648Y-123372419D02*
X129613410Y-123324800D01*
X129613410Y-123324800D02*
X129565791Y-123229561D01*
X129565791Y-123229561D02*
X129565791Y-123134323D01*
X129565791Y-123134323D02*
X129613410Y-123039085D01*
X129613410Y-123039085D02*
X129708648Y-122991466D01*
X129708648Y-122991466D02*
X129946743Y-122991466D01*
X129946743Y-122991466D02*
X130041981Y-122943847D01*
X130470553Y-123324800D02*
X130565791Y-123372419D01*
X130565791Y-123372419D02*
X130756267Y-123372419D01*
X130756267Y-123372419D02*
X130851505Y-123324800D01*
X130851505Y-123324800D02*
X130899124Y-123229561D01*
X130899124Y-123229561D02*
X130899124Y-123181942D01*
X130899124Y-123181942D02*
X130851505Y-123086704D01*
X130851505Y-123086704D02*
X130756267Y-123039085D01*
X130756267Y-123039085D02*
X130613410Y-123039085D01*
X130613410Y-123039085D02*
X130518172Y-122991466D01*
X130518172Y-122991466D02*
X130470553Y-122896228D01*
X130470553Y-122896228D02*
X130470553Y-122848609D01*
X130470553Y-122848609D02*
X130518172Y-122753371D01*
X130518172Y-122753371D02*
X130613410Y-122705752D01*
X130613410Y-122705752D02*
X130756267Y-122705752D01*
X130756267Y-122705752D02*
X130851505Y-122753371D01*
X132089601Y-123372419D02*
X132089601Y-122372419D01*
X132518172Y-123372419D02*
X132518172Y-122848609D01*
X132518172Y-122848609D02*
X132470553Y-122753371D01*
X132470553Y-122753371D02*
X132375315Y-122705752D01*
X132375315Y-122705752D02*
X132232458Y-122705752D01*
X132232458Y-122705752D02*
X132137220Y-122753371D01*
X132137220Y-122753371D02*
X132089601Y-122800990D01*
X133375315Y-123324800D02*
X133280077Y-123372419D01*
X133280077Y-123372419D02*
X133089601Y-123372419D01*
X133089601Y-123372419D02*
X132994363Y-123324800D01*
X132994363Y-123324800D02*
X132946744Y-123229561D01*
X132946744Y-123229561D02*
X132946744Y-122848609D01*
X132946744Y-122848609D02*
X132994363Y-122753371D01*
X132994363Y-122753371D02*
X133089601Y-122705752D01*
X133089601Y-122705752D02*
X133280077Y-122705752D01*
X133280077Y-122705752D02*
X133375315Y-122753371D01*
X133375315Y-122753371D02*
X133422934Y-122848609D01*
X133422934Y-122848609D02*
X133422934Y-122943847D01*
X133422934Y-122943847D02*
X132946744Y-123039085D01*
X133851506Y-123372419D02*
X133851506Y-122705752D01*
X133851506Y-122896228D02*
X133899125Y-122800990D01*
X133899125Y-122800990D02*
X133946744Y-122753371D01*
X133946744Y-122753371D02*
X134041982Y-122705752D01*
X134041982Y-122705752D02*
X134137220Y-122705752D01*
X134851506Y-123324800D02*
X134756268Y-123372419D01*
X134756268Y-123372419D02*
X134565792Y-123372419D01*
X134565792Y-123372419D02*
X134470554Y-123324800D01*
X134470554Y-123324800D02*
X134422935Y-123229561D01*
X134422935Y-123229561D02*
X134422935Y-122848609D01*
X134422935Y-122848609D02*
X134470554Y-122753371D01*
X134470554Y-122753371D02*
X134565792Y-122705752D01*
X134565792Y-122705752D02*
X134756268Y-122705752D01*
X134756268Y-122705752D02*
X134851506Y-122753371D01*
X134851506Y-122753371D02*
X134899125Y-122848609D01*
X134899125Y-122848609D02*
X134899125Y-122943847D01*
X134899125Y-122943847D02*
X134422935Y-123039085D01*
D11*
X162574819Y-101833333D02*
X163289104Y-101833333D01*
X163289104Y-101833333D02*
X163431961Y-101880952D01*
X163431961Y-101880952D02*
X163527200Y-101976190D01*
X163527200Y-101976190D02*
X163574819Y-102119047D01*
X163574819Y-102119047D02*
X163574819Y-102214285D01*
X163574819Y-100833333D02*
X163574819Y-101404761D01*
X163574819Y-101119047D02*
X162574819Y-101119047D01*
X162574819Y-101119047D02*
X162717676Y-101214285D01*
X162717676Y-101214285D02*
X162812914Y-101309523D01*
X162812914Y-101309523D02*
X162860533Y-101404761D01*
X139238095Y-94454819D02*
X139238095Y-95264342D01*
X139238095Y-95264342D02*
X139285714Y-95359580D01*
X139285714Y-95359580D02*
X139333333Y-95407200D01*
X139333333Y-95407200D02*
X139428571Y-95454819D01*
X139428571Y-95454819D02*
X139619047Y-95454819D01*
X139619047Y-95454819D02*
X139714285Y-95407200D01*
X139714285Y-95407200D02*
X139761904Y-95359580D01*
X139761904Y-95359580D02*
X139809523Y-95264342D01*
X139809523Y-95264342D02*
X139809523Y-94454819D01*
X140238095Y-94550057D02*
X140285714Y-94502438D01*
X140285714Y-94502438D02*
X140380952Y-94454819D01*
X140380952Y-94454819D02*
X140619047Y-94454819D01*
X140619047Y-94454819D02*
X140714285Y-94502438D01*
X140714285Y-94502438D02*
X140761904Y-94550057D01*
X140761904Y-94550057D02*
X140809523Y-94645295D01*
X140809523Y-94645295D02*
X140809523Y-94740533D01*
X140809523Y-94740533D02*
X140761904Y-94883390D01*
X140761904Y-94883390D02*
X140190476Y-95454819D01*
X140190476Y-95454819D02*
X140809523Y-95454819D01*
X136190000Y-84155119D02*
X136190000Y-84393214D01*
X135951905Y-84297976D02*
X136190000Y-84393214D01*
X136190000Y-84393214D02*
X136428095Y-84297976D01*
X136047143Y-84583690D02*
X136190000Y-84393214D01*
X136190000Y-84393214D02*
X136332857Y-84583690D01*
X136190000Y-84155119D02*
X136190000Y-84393214D01*
X135951905Y-84297976D02*
X136190000Y-84393214D01*
X136190000Y-84393214D02*
X136428095Y-84297976D01*
X136047143Y-84583690D02*
X136190000Y-84393214D01*
X136190000Y-84393214D02*
X136332857Y-84583690D01*
X148314819Y-90261904D02*
X149124342Y-90261904D01*
X149124342Y-90261904D02*
X149219580Y-90214285D01*
X149219580Y-90214285D02*
X149267200Y-90166666D01*
X149267200Y-90166666D02*
X149314819Y-90071428D01*
X149314819Y-90071428D02*
X149314819Y-89880952D01*
X149314819Y-89880952D02*
X149267200Y-89785714D01*
X149267200Y-89785714D02*
X149219580Y-89738095D01*
X149219580Y-89738095D02*
X149124342Y-89690476D01*
X149124342Y-89690476D02*
X148314819Y-89690476D01*
X149314819Y-88690476D02*
X149314819Y-89261904D01*
X149314819Y-88976190D02*
X148314819Y-88976190D01*
X148314819Y-88976190D02*
X148457676Y-89071428D01*
X148457676Y-89071428D02*
X148552914Y-89166666D01*
X148552914Y-89166666D02*
X148600533Y-89261904D01*
X153944761Y-96454819D02*
X153611428Y-95978628D01*
X153373333Y-96454819D02*
X153373333Y-95454819D01*
X153373333Y-95454819D02*
X153754285Y-95454819D01*
X153754285Y-95454819D02*
X153849523Y-95502438D01*
X153849523Y-95502438D02*
X153897142Y-95550057D01*
X153897142Y-95550057D02*
X153944761Y-95645295D01*
X153944761Y-95645295D02*
X153944761Y-95788152D01*
X153944761Y-95788152D02*
X153897142Y-95883390D01*
X153897142Y-95883390D02*
X153849523Y-95931009D01*
X153849523Y-95931009D02*
X153754285Y-95978628D01*
X153754285Y-95978628D02*
X153373333Y-95978628D01*
X154230476Y-95454819D02*
X154563809Y-96454819D01*
X154563809Y-96454819D02*
X154897142Y-95454819D01*
X155754285Y-96454819D02*
X155182857Y-96454819D01*
X155468571Y-96454819D02*
X155468571Y-95454819D01*
X155468571Y-95454819D02*
X155373333Y-95597676D01*
X155373333Y-95597676D02*
X155278095Y-95692914D01*
X155278095Y-95692914D02*
X155182857Y-95740533D01*
X154143333Y-110084819D02*
X153810000Y-109608628D01*
X153571905Y-110084819D02*
X153571905Y-109084819D01*
X153571905Y-109084819D02*
X153952857Y-109084819D01*
X153952857Y-109084819D02*
X154048095Y-109132438D01*
X154048095Y-109132438D02*
X154095714Y-109180057D01*
X154095714Y-109180057D02*
X154143333Y-109275295D01*
X154143333Y-109275295D02*
X154143333Y-109418152D01*
X154143333Y-109418152D02*
X154095714Y-109513390D01*
X154095714Y-109513390D02*
X154048095Y-109561009D01*
X154048095Y-109561009D02*
X153952857Y-109608628D01*
X153952857Y-109608628D02*
X153571905Y-109608628D01*
X155000476Y-109418152D02*
X155000476Y-110084819D01*
X154762381Y-109037200D02*
X154524286Y-109751485D01*
X154524286Y-109751485D02*
X155143333Y-109751485D01*
X154143333Y-105584819D02*
X153810000Y-105108628D01*
X153571905Y-105584819D02*
X153571905Y-104584819D01*
X153571905Y-104584819D02*
X153952857Y-104584819D01*
X153952857Y-104584819D02*
X154048095Y-104632438D01*
X154048095Y-104632438D02*
X154095714Y-104680057D01*
X154095714Y-104680057D02*
X154143333Y-104775295D01*
X154143333Y-104775295D02*
X154143333Y-104918152D01*
X154143333Y-104918152D02*
X154095714Y-105013390D01*
X154095714Y-105013390D02*
X154048095Y-105061009D01*
X154048095Y-105061009D02*
X153952857Y-105108628D01*
X153952857Y-105108628D02*
X153571905Y-105108628D01*
X155095714Y-105584819D02*
X154524286Y-105584819D01*
X154810000Y-105584819D02*
X154810000Y-104584819D01*
X154810000Y-104584819D02*
X154714762Y-104727676D01*
X154714762Y-104727676D02*
X154619524Y-104822914D01*
X154619524Y-104822914D02*
X154524286Y-104870533D01*
X120555714Y-101994819D02*
X120555714Y-100994819D01*
X120555714Y-100994819D02*
X120793809Y-100994819D01*
X120793809Y-100994819D02*
X120936666Y-101042438D01*
X120936666Y-101042438D02*
X121031904Y-101137676D01*
X121031904Y-101137676D02*
X121079523Y-101232914D01*
X121079523Y-101232914D02*
X121127142Y-101423390D01*
X121127142Y-101423390D02*
X121127142Y-101566247D01*
X121127142Y-101566247D02*
X121079523Y-101756723D01*
X121079523Y-101756723D02*
X121031904Y-101851961D01*
X121031904Y-101851961D02*
X120936666Y-101947200D01*
X120936666Y-101947200D02*
X120793809Y-101994819D01*
X120793809Y-101994819D02*
X120555714Y-101994819D01*
X122079523Y-101994819D02*
X121508095Y-101994819D01*
X121793809Y-101994819D02*
X121793809Y-100994819D01*
X121793809Y-100994819D02*
X121698571Y-101137676D01*
X121698571Y-101137676D02*
X121603333Y-101232914D01*
X121603333Y-101232914D02*
X121508095Y-101280533D01*
X122460476Y-101090057D02*
X122508095Y-101042438D01*
X122508095Y-101042438D02*
X122603333Y-100994819D01*
X122603333Y-100994819D02*
X122841428Y-100994819D01*
X122841428Y-100994819D02*
X122936666Y-101042438D01*
X122936666Y-101042438D02*
X122984285Y-101090057D01*
X122984285Y-101090057D02*
X123031904Y-101185295D01*
X123031904Y-101185295D02*
X123031904Y-101280533D01*
X123031904Y-101280533D02*
X122984285Y-101423390D01*
X122984285Y-101423390D02*
X122412857Y-101994819D01*
X122412857Y-101994819D02*
X123031904Y-101994819D01*
X127055714Y-115494819D02*
X127055714Y-114494819D01*
X127055714Y-114494819D02*
X127293809Y-114494819D01*
X127293809Y-114494819D02*
X127436666Y-114542438D01*
X127436666Y-114542438D02*
X127531904Y-114637676D01*
X127531904Y-114637676D02*
X127579523Y-114732914D01*
X127579523Y-114732914D02*
X127627142Y-114923390D01*
X127627142Y-114923390D02*
X127627142Y-115066247D01*
X127627142Y-115066247D02*
X127579523Y-115256723D01*
X127579523Y-115256723D02*
X127531904Y-115351961D01*
X127531904Y-115351961D02*
X127436666Y-115447200D01*
X127436666Y-115447200D02*
X127293809Y-115494819D01*
X127293809Y-115494819D02*
X127055714Y-115494819D01*
X128579523Y-115494819D02*
X128008095Y-115494819D01*
X128293809Y-115494819D02*
X128293809Y-114494819D01*
X128293809Y-114494819D02*
X128198571Y-114637676D01*
X128198571Y-114637676D02*
X128103333Y-114732914D01*
X128103333Y-114732914D02*
X128008095Y-114780533D01*
X129531904Y-115494819D02*
X128960476Y-115494819D01*
X129246190Y-115494819D02*
X129246190Y-114494819D01*
X129246190Y-114494819D02*
X129150952Y-114637676D01*
X129150952Y-114637676D02*
X129055714Y-114732914D01*
X129055714Y-114732914D02*
X128960476Y-114780533D01*
X134055714Y-115494819D02*
X134055714Y-114494819D01*
X134055714Y-114494819D02*
X134293809Y-114494819D01*
X134293809Y-114494819D02*
X134436666Y-114542438D01*
X134436666Y-114542438D02*
X134531904Y-114637676D01*
X134531904Y-114637676D02*
X134579523Y-114732914D01*
X134579523Y-114732914D02*
X134627142Y-114923390D01*
X134627142Y-114923390D02*
X134627142Y-115066247D01*
X134627142Y-115066247D02*
X134579523Y-115256723D01*
X134579523Y-115256723D02*
X134531904Y-115351961D01*
X134531904Y-115351961D02*
X134436666Y-115447200D01*
X134436666Y-115447200D02*
X134293809Y-115494819D01*
X134293809Y-115494819D02*
X134055714Y-115494819D01*
X135579523Y-115494819D02*
X135008095Y-115494819D01*
X135293809Y-115494819D02*
X135293809Y-114494819D01*
X135293809Y-114494819D02*
X135198571Y-114637676D01*
X135198571Y-114637676D02*
X135103333Y-114732914D01*
X135103333Y-114732914D02*
X135008095Y-114780533D01*
X136198571Y-114494819D02*
X136293809Y-114494819D01*
X136293809Y-114494819D02*
X136389047Y-114542438D01*
X136389047Y-114542438D02*
X136436666Y-114590057D01*
X136436666Y-114590057D02*
X136484285Y-114685295D01*
X136484285Y-114685295D02*
X136531904Y-114875771D01*
X136531904Y-114875771D02*
X136531904Y-115113866D01*
X136531904Y-115113866D02*
X136484285Y-115304342D01*
X136484285Y-115304342D02*
X136436666Y-115399580D01*
X136436666Y-115399580D02*
X136389047Y-115447200D01*
X136389047Y-115447200D02*
X136293809Y-115494819D01*
X136293809Y-115494819D02*
X136198571Y-115494819D01*
X136198571Y-115494819D02*
X136103333Y-115447200D01*
X136103333Y-115447200D02*
X136055714Y-115399580D01*
X136055714Y-115399580D02*
X136008095Y-115304342D01*
X136008095Y-115304342D02*
X135960476Y-115113866D01*
X135960476Y-115113866D02*
X135960476Y-114875771D01*
X135960476Y-114875771D02*
X136008095Y-114685295D01*
X136008095Y-114685295D02*
X136055714Y-114590057D01*
X136055714Y-114590057D02*
X136103333Y-114542438D01*
X136103333Y-114542438D02*
X136198571Y-114494819D01*
X141031905Y-115494819D02*
X141031905Y-114494819D01*
X141031905Y-114494819D02*
X141270000Y-114494819D01*
X141270000Y-114494819D02*
X141412857Y-114542438D01*
X141412857Y-114542438D02*
X141508095Y-114637676D01*
X141508095Y-114637676D02*
X141555714Y-114732914D01*
X141555714Y-114732914D02*
X141603333Y-114923390D01*
X141603333Y-114923390D02*
X141603333Y-115066247D01*
X141603333Y-115066247D02*
X141555714Y-115256723D01*
X141555714Y-115256723D02*
X141508095Y-115351961D01*
X141508095Y-115351961D02*
X141412857Y-115447200D01*
X141412857Y-115447200D02*
X141270000Y-115494819D01*
X141270000Y-115494819D02*
X141031905Y-115494819D01*
X142079524Y-115494819D02*
X142270000Y-115494819D01*
X142270000Y-115494819D02*
X142365238Y-115447200D01*
X142365238Y-115447200D02*
X142412857Y-115399580D01*
X142412857Y-115399580D02*
X142508095Y-115256723D01*
X142508095Y-115256723D02*
X142555714Y-115066247D01*
X142555714Y-115066247D02*
X142555714Y-114685295D01*
X142555714Y-114685295D02*
X142508095Y-114590057D01*
X142508095Y-114590057D02*
X142460476Y-114542438D01*
X142460476Y-114542438D02*
X142365238Y-114494819D01*
X142365238Y-114494819D02*
X142174762Y-114494819D01*
X142174762Y-114494819D02*
X142079524Y-114542438D01*
X142079524Y-114542438D02*
X142031905Y-114590057D01*
X142031905Y-114590057D02*
X141984286Y-114685295D01*
X141984286Y-114685295D02*
X141984286Y-114923390D01*
X141984286Y-114923390D02*
X142031905Y-115018628D01*
X142031905Y-115018628D02*
X142079524Y-115066247D01*
X142079524Y-115066247D02*
X142174762Y-115113866D01*
X142174762Y-115113866D02*
X142365238Y-115113866D01*
X142365238Y-115113866D02*
X142460476Y-115066247D01*
X142460476Y-115066247D02*
X142508095Y-115018628D01*
X142508095Y-115018628D02*
X142555714Y-114923390D01*
X121031905Y-115494819D02*
X121031905Y-114494819D01*
X121031905Y-114494819D02*
X121270000Y-114494819D01*
X121270000Y-114494819D02*
X121412857Y-114542438D01*
X121412857Y-114542438D02*
X121508095Y-114637676D01*
X121508095Y-114637676D02*
X121555714Y-114732914D01*
X121555714Y-114732914D02*
X121603333Y-114923390D01*
X121603333Y-114923390D02*
X121603333Y-115066247D01*
X121603333Y-115066247D02*
X121555714Y-115256723D01*
X121555714Y-115256723D02*
X121508095Y-115351961D01*
X121508095Y-115351961D02*
X121412857Y-115447200D01*
X121412857Y-115447200D02*
X121270000Y-115494819D01*
X121270000Y-115494819D02*
X121031905Y-115494819D01*
X122174762Y-114923390D02*
X122079524Y-114875771D01*
X122079524Y-114875771D02*
X122031905Y-114828152D01*
X122031905Y-114828152D02*
X121984286Y-114732914D01*
X121984286Y-114732914D02*
X121984286Y-114685295D01*
X121984286Y-114685295D02*
X122031905Y-114590057D01*
X122031905Y-114590057D02*
X122079524Y-114542438D01*
X122079524Y-114542438D02*
X122174762Y-114494819D01*
X122174762Y-114494819D02*
X122365238Y-114494819D01*
X122365238Y-114494819D02*
X122460476Y-114542438D01*
X122460476Y-114542438D02*
X122508095Y-114590057D01*
X122508095Y-114590057D02*
X122555714Y-114685295D01*
X122555714Y-114685295D02*
X122555714Y-114732914D01*
X122555714Y-114732914D02*
X122508095Y-114828152D01*
X122508095Y-114828152D02*
X122460476Y-114875771D01*
X122460476Y-114875771D02*
X122365238Y-114923390D01*
X122365238Y-114923390D02*
X122174762Y-114923390D01*
X122174762Y-114923390D02*
X122079524Y-114971009D01*
X122079524Y-114971009D02*
X122031905Y-115018628D01*
X122031905Y-115018628D02*
X121984286Y-115113866D01*
X121984286Y-115113866D02*
X121984286Y-115304342D01*
X121984286Y-115304342D02*
X122031905Y-115399580D01*
X122031905Y-115399580D02*
X122079524Y-115447200D01*
X122079524Y-115447200D02*
X122174762Y-115494819D01*
X122174762Y-115494819D02*
X122365238Y-115494819D01*
X122365238Y-115494819D02*
X122460476Y-115447200D01*
X122460476Y-115447200D02*
X122508095Y-115399580D01*
X122508095Y-115399580D02*
X122555714Y-115304342D01*
X122555714Y-115304342D02*
X122555714Y-115113866D01*
X122555714Y-115113866D02*
X122508095Y-115018628D01*
X122508095Y-115018628D02*
X122460476Y-114971009D01*
X122460476Y-114971009D02*
X122365238Y-114923390D01*
X121031905Y-76494819D02*
X121031905Y-75494819D01*
X121031905Y-75494819D02*
X121270000Y-75494819D01*
X121270000Y-75494819D02*
X121412857Y-75542438D01*
X121412857Y-75542438D02*
X121508095Y-75637676D01*
X121508095Y-75637676D02*
X121555714Y-75732914D01*
X121555714Y-75732914D02*
X121603333Y-75923390D01*
X121603333Y-75923390D02*
X121603333Y-76066247D01*
X121603333Y-76066247D02*
X121555714Y-76256723D01*
X121555714Y-76256723D02*
X121508095Y-76351961D01*
X121508095Y-76351961D02*
X121412857Y-76447200D01*
X121412857Y-76447200D02*
X121270000Y-76494819D01*
X121270000Y-76494819D02*
X121031905Y-76494819D01*
X121936667Y-75494819D02*
X122603333Y-75494819D01*
X122603333Y-75494819D02*
X122174762Y-76494819D01*
X121031905Y-108994819D02*
X121031905Y-107994819D01*
X121031905Y-107994819D02*
X121270000Y-107994819D01*
X121270000Y-107994819D02*
X121412857Y-108042438D01*
X121412857Y-108042438D02*
X121508095Y-108137676D01*
X121508095Y-108137676D02*
X121555714Y-108232914D01*
X121555714Y-108232914D02*
X121603333Y-108423390D01*
X121603333Y-108423390D02*
X121603333Y-108566247D01*
X121603333Y-108566247D02*
X121555714Y-108756723D01*
X121555714Y-108756723D02*
X121508095Y-108851961D01*
X121508095Y-108851961D02*
X121412857Y-108947200D01*
X121412857Y-108947200D02*
X121270000Y-108994819D01*
X121270000Y-108994819D02*
X121031905Y-108994819D01*
X122460476Y-107994819D02*
X122270000Y-107994819D01*
X122270000Y-107994819D02*
X122174762Y-108042438D01*
X122174762Y-108042438D02*
X122127143Y-108090057D01*
X122127143Y-108090057D02*
X122031905Y-108232914D01*
X122031905Y-108232914D02*
X121984286Y-108423390D01*
X121984286Y-108423390D02*
X121984286Y-108804342D01*
X121984286Y-108804342D02*
X122031905Y-108899580D01*
X122031905Y-108899580D02*
X122079524Y-108947200D01*
X122079524Y-108947200D02*
X122174762Y-108994819D01*
X122174762Y-108994819D02*
X122365238Y-108994819D01*
X122365238Y-108994819D02*
X122460476Y-108947200D01*
X122460476Y-108947200D02*
X122508095Y-108899580D01*
X122508095Y-108899580D02*
X122555714Y-108804342D01*
X122555714Y-108804342D02*
X122555714Y-108566247D01*
X122555714Y-108566247D02*
X122508095Y-108471009D01*
X122508095Y-108471009D02*
X122460476Y-108423390D01*
X122460476Y-108423390D02*
X122365238Y-108375771D01*
X122365238Y-108375771D02*
X122174762Y-108375771D01*
X122174762Y-108375771D02*
X122079524Y-108423390D01*
X122079524Y-108423390D02*
X122031905Y-108471009D01*
X122031905Y-108471009D02*
X121984286Y-108566247D01*
X121031905Y-95494819D02*
X121031905Y-94494819D01*
X121031905Y-94494819D02*
X121270000Y-94494819D01*
X121270000Y-94494819D02*
X121412857Y-94542438D01*
X121412857Y-94542438D02*
X121508095Y-94637676D01*
X121508095Y-94637676D02*
X121555714Y-94732914D01*
X121555714Y-94732914D02*
X121603333Y-94923390D01*
X121603333Y-94923390D02*
X121603333Y-95066247D01*
X121603333Y-95066247D02*
X121555714Y-95256723D01*
X121555714Y-95256723D02*
X121508095Y-95351961D01*
X121508095Y-95351961D02*
X121412857Y-95447200D01*
X121412857Y-95447200D02*
X121270000Y-95494819D01*
X121270000Y-95494819D02*
X121031905Y-95494819D01*
X122508095Y-94494819D02*
X122031905Y-94494819D01*
X122031905Y-94494819D02*
X121984286Y-94971009D01*
X121984286Y-94971009D02*
X122031905Y-94923390D01*
X122031905Y-94923390D02*
X122127143Y-94875771D01*
X122127143Y-94875771D02*
X122365238Y-94875771D01*
X122365238Y-94875771D02*
X122460476Y-94923390D01*
X122460476Y-94923390D02*
X122508095Y-94971009D01*
X122508095Y-94971009D02*
X122555714Y-95066247D01*
X122555714Y-95066247D02*
X122555714Y-95304342D01*
X122555714Y-95304342D02*
X122508095Y-95399580D01*
X122508095Y-95399580D02*
X122460476Y-95447200D01*
X122460476Y-95447200D02*
X122365238Y-95494819D01*
X122365238Y-95494819D02*
X122127143Y-95494819D01*
X122127143Y-95494819D02*
X122031905Y-95447200D01*
X122031905Y-95447200D02*
X121984286Y-95399580D01*
X121031905Y-88994819D02*
X121031905Y-87994819D01*
X121031905Y-87994819D02*
X121270000Y-87994819D01*
X121270000Y-87994819D02*
X121412857Y-88042438D01*
X121412857Y-88042438D02*
X121508095Y-88137676D01*
X121508095Y-88137676D02*
X121555714Y-88232914D01*
X121555714Y-88232914D02*
X121603333Y-88423390D01*
X121603333Y-88423390D02*
X121603333Y-88566247D01*
X121603333Y-88566247D02*
X121555714Y-88756723D01*
X121555714Y-88756723D02*
X121508095Y-88851961D01*
X121508095Y-88851961D02*
X121412857Y-88947200D01*
X121412857Y-88947200D02*
X121270000Y-88994819D01*
X121270000Y-88994819D02*
X121031905Y-88994819D01*
X121984286Y-88090057D02*
X122031905Y-88042438D01*
X122031905Y-88042438D02*
X122127143Y-87994819D01*
X122127143Y-87994819D02*
X122365238Y-87994819D01*
X122365238Y-87994819D02*
X122460476Y-88042438D01*
X122460476Y-88042438D02*
X122508095Y-88090057D01*
X122508095Y-88090057D02*
X122555714Y-88185295D01*
X122555714Y-88185295D02*
X122555714Y-88280533D01*
X122555714Y-88280533D02*
X122508095Y-88423390D01*
X122508095Y-88423390D02*
X121936667Y-88994819D01*
X121936667Y-88994819D02*
X122555714Y-88994819D01*
X121031905Y-82494819D02*
X121031905Y-81494819D01*
X121031905Y-81494819D02*
X121270000Y-81494819D01*
X121270000Y-81494819D02*
X121412857Y-81542438D01*
X121412857Y-81542438D02*
X121508095Y-81637676D01*
X121508095Y-81637676D02*
X121555714Y-81732914D01*
X121555714Y-81732914D02*
X121603333Y-81923390D01*
X121603333Y-81923390D02*
X121603333Y-82066247D01*
X121603333Y-82066247D02*
X121555714Y-82256723D01*
X121555714Y-82256723D02*
X121508095Y-82351961D01*
X121508095Y-82351961D02*
X121412857Y-82447200D01*
X121412857Y-82447200D02*
X121270000Y-82494819D01*
X121270000Y-82494819D02*
X121031905Y-82494819D01*
X122555714Y-82494819D02*
X121984286Y-82494819D01*
X122270000Y-82494819D02*
X122270000Y-81494819D01*
X122270000Y-81494819D02*
X122174762Y-81637676D01*
X122174762Y-81637676D02*
X122079524Y-81732914D01*
X122079524Y-81732914D02*
X121984286Y-81780533D01*
X167333333Y-93359580D02*
X167285714Y-93407200D01*
X167285714Y-93407200D02*
X167142857Y-93454819D01*
X167142857Y-93454819D02*
X167047619Y-93454819D01*
X167047619Y-93454819D02*
X166904762Y-93407200D01*
X166904762Y-93407200D02*
X166809524Y-93311961D01*
X166809524Y-93311961D02*
X166761905Y-93216723D01*
X166761905Y-93216723D02*
X166714286Y-93026247D01*
X166714286Y-93026247D02*
X166714286Y-92883390D01*
X166714286Y-92883390D02*
X166761905Y-92692914D01*
X166761905Y-92692914D02*
X166809524Y-92597676D01*
X166809524Y-92597676D02*
X166904762Y-92502438D01*
X166904762Y-92502438D02*
X167047619Y-92454819D01*
X167047619Y-92454819D02*
X167142857Y-92454819D01*
X167142857Y-92454819D02*
X167285714Y-92502438D01*
X167285714Y-92502438D02*
X167333333Y-92550057D01*
X168190476Y-92788152D02*
X168190476Y-93454819D01*
X167952381Y-92407200D02*
X167714286Y-93121485D01*
X167714286Y-93121485D02*
X168333333Y-93121485D01*
X166333333Y-84109580D02*
X166285714Y-84157200D01*
X166285714Y-84157200D02*
X166142857Y-84204819D01*
X166142857Y-84204819D02*
X166047619Y-84204819D01*
X166047619Y-84204819D02*
X165904762Y-84157200D01*
X165904762Y-84157200D02*
X165809524Y-84061961D01*
X165809524Y-84061961D02*
X165761905Y-83966723D01*
X165761905Y-83966723D02*
X165714286Y-83776247D01*
X165714286Y-83776247D02*
X165714286Y-83633390D01*
X165714286Y-83633390D02*
X165761905Y-83442914D01*
X165761905Y-83442914D02*
X165809524Y-83347676D01*
X165809524Y-83347676D02*
X165904762Y-83252438D01*
X165904762Y-83252438D02*
X166047619Y-83204819D01*
X166047619Y-83204819D02*
X166142857Y-83204819D01*
X166142857Y-83204819D02*
X166285714Y-83252438D01*
X166285714Y-83252438D02*
X166333333Y-83300057D01*
X166666667Y-83204819D02*
X167285714Y-83204819D01*
X167285714Y-83204819D02*
X166952381Y-83585771D01*
X166952381Y-83585771D02*
X167095238Y-83585771D01*
X167095238Y-83585771D02*
X167190476Y-83633390D01*
X167190476Y-83633390D02*
X167238095Y-83681009D01*
X167238095Y-83681009D02*
X167285714Y-83776247D01*
X167285714Y-83776247D02*
X167285714Y-84014342D01*
X167285714Y-84014342D02*
X167238095Y-84109580D01*
X167238095Y-84109580D02*
X167190476Y-84157200D01*
X167190476Y-84157200D02*
X167095238Y-84204819D01*
X167095238Y-84204819D02*
X166809524Y-84204819D01*
X166809524Y-84204819D02*
X166714286Y-84157200D01*
X166714286Y-84157200D02*
X166666667Y-84109580D01*
%TO.C,J1*%
D12*
X166770000Y-100120000D02*
X169420000Y-100120000D01*
X169420000Y-102880000D02*
X169420000Y-100120000D01*
X166770000Y-102880000D02*
X166770000Y-100120000D01*
X166770000Y-102880000D02*
X169420000Y-102880000D01*
X165500000Y-102880000D02*
X164120000Y-102880000D01*
X164120000Y-102880000D02*
X164120000Y-101500000D01*
%TO.C,U2*%
D13*
X143302000Y-87811431D02*
X143302000Y-86948569D01*
X143302000Y-90351431D02*
X143302000Y-89488569D01*
X143302000Y-92891431D02*
X143302000Y-92028569D01*
X143302000Y-95431431D02*
X143302000Y-94568569D01*
X143302000Y-97971431D02*
X143302000Y-97108569D01*
X143302000Y-100511431D02*
X143302000Y-99648569D01*
X136698000Y-102188569D02*
X136698000Y-103051431D01*
X136698000Y-99648569D02*
X136698000Y-100511431D01*
X136698000Y-97108569D02*
X136698000Y-97971431D01*
X136698000Y-94568569D02*
X136698000Y-95431431D01*
X136698000Y-92028569D02*
X136698000Y-92891431D01*
X136698000Y-89488569D02*
X136698000Y-90351431D01*
X140304800Y-85157500D02*
G75*
G02*
X139695200Y-85157500I-304800J0D01*
G01*
X136698000Y-87090440D02*
X136698000Y-87811431D01*
X143302000Y-85157500D02*
X136971165Y-85157500D01*
X143302000Y-103051431D02*
X143302000Y-102188569D01*
X136698000Y-104842500D02*
X143302000Y-104842500D01*
%TO.C,U1*%
D12*
X149860000Y-92150000D02*
X160140000Y-92150000D01*
X160140000Y-92150000D02*
X160140000Y-86850000D01*
X149860000Y-90500000D02*
X149860000Y-92150000D01*
X149860000Y-86850000D02*
X149860000Y-88500000D01*
X160140000Y-86850000D02*
X149860000Y-86850000D01*
X149860000Y-88500000D02*
G75*
G02*
X149860000Y-90500000I0J-1000000D01*
G01*
%TO.C,RV1*%
X149580000Y-96890000D02*
X149580000Y-102110000D01*
X149580000Y-96890000D02*
X151700000Y-96890000D01*
X149580000Y-102110000D02*
X159500000Y-102110000D01*
X152400000Y-96890000D02*
X159500000Y-96890000D01*
X159500000Y-96890000D02*
X159500000Y-102110000D01*
X152000000Y-96890000D02*
X151760000Y-96560000D01*
X152240000Y-96560000D01*
X152000000Y-96890000D01*
G36*
X152000000Y-96890000D02*
G01*
X151760000Y-96560000D01*
X152240000Y-96560000D01*
X152000000Y-96890000D01*
G37*
%TO.C,R4*%
X151040000Y-110630000D02*
X157580000Y-110630000D01*
X151040000Y-110960000D02*
X151040000Y-110630000D01*
X151040000Y-113040000D02*
X151040000Y-113370000D01*
X151040000Y-113370000D02*
X157580000Y-113370000D01*
X157580000Y-110630000D02*
X157580000Y-110960000D01*
X157580000Y-113370000D02*
X157580000Y-113040000D01*
%TO.C,R1*%
X151040000Y-106130000D02*
X157580000Y-106130000D01*
X151040000Y-106460000D02*
X151040000Y-106130000D01*
X151040000Y-108540000D02*
X151040000Y-108870000D01*
X151040000Y-108870000D02*
X157580000Y-108870000D01*
X157580000Y-106130000D02*
X157580000Y-106460000D01*
X157580000Y-108870000D02*
X157580000Y-108540000D01*
%TO.C,D12*%
X120210000Y-103264000D02*
X120210000Y-103420000D01*
X120210000Y-105580000D02*
X120210000Y-105736000D01*
X120210000Y-103264484D02*
G75*
G02*
X123441437Y-103420000I1560000J-1235516D01*
G01*
X120729039Y-103420000D02*
G75*
G02*
X122810961Y-103420000I1040961J-1080000D01*
G01*
X122810961Y-105580000D02*
G75*
G02*
X120729039Y-105580000I-1040961J1080000D01*
G01*
X123441437Y-105580000D02*
G75*
G02*
X120210000Y-105735516I-1671437J1080000D01*
G01*
%TO.C,D11*%
X126710000Y-116764000D02*
X126710000Y-116920000D01*
X126710000Y-119080000D02*
X126710000Y-119236000D01*
X126710000Y-116764484D02*
G75*
G02*
X129941437Y-116920000I1560000J-1235516D01*
G01*
X127229039Y-116920000D02*
G75*
G02*
X129310961Y-116920000I1040961J-1080000D01*
G01*
X129310961Y-119080000D02*
G75*
G02*
X127229039Y-119080000I-1040961J1080000D01*
G01*
X129941437Y-119080000D02*
G75*
G02*
X126710000Y-119235516I-1671437J1080000D01*
G01*
%TO.C,D10*%
X133710000Y-116764000D02*
X133710000Y-116920000D01*
X133710000Y-119080000D02*
X133710000Y-119236000D01*
X133710000Y-116764484D02*
G75*
G02*
X136941437Y-116920000I1560000J-1235516D01*
G01*
X134229039Y-116920000D02*
G75*
G02*
X136310961Y-116920000I1040961J-1080000D01*
G01*
X136310961Y-119080000D02*
G75*
G02*
X134229039Y-119080000I-1040961J1080000D01*
G01*
X136941437Y-119080000D02*
G75*
G02*
X133710000Y-119235516I-1671437J1080000D01*
G01*
%TO.C,D9*%
X140210000Y-116764000D02*
X140210000Y-116920000D01*
X140210000Y-119080000D02*
X140210000Y-119236000D01*
X140210000Y-116764484D02*
G75*
G02*
X143441437Y-116920000I1560000J-1235516D01*
G01*
X140729039Y-116920000D02*
G75*
G02*
X142810961Y-116920000I1040961J-1080000D01*
G01*
X142810961Y-119080000D02*
G75*
G02*
X140729039Y-119080000I-1040961J1080000D01*
G01*
X143441437Y-119080000D02*
G75*
G02*
X140210000Y-119235516I-1671437J1080000D01*
G01*
%TO.C,D8*%
X120210000Y-116764000D02*
X120210000Y-116920000D01*
X120210000Y-119080000D02*
X120210000Y-119236000D01*
X120210000Y-116764484D02*
G75*
G02*
X123441437Y-116920000I1560000J-1235516D01*
G01*
X120729039Y-116920000D02*
G75*
G02*
X122810961Y-116920000I1040961J-1080000D01*
G01*
X122810961Y-119080000D02*
G75*
G02*
X120729039Y-119080000I-1040961J1080000D01*
G01*
X123441437Y-119080000D02*
G75*
G02*
X120210000Y-119235516I-1671437J1080000D01*
G01*
%TO.C,D7*%
X120210000Y-77764000D02*
X120210000Y-77920000D01*
X120210000Y-80080000D02*
X120210000Y-80236000D01*
X120210000Y-77764484D02*
G75*
G02*
X123441437Y-77920000I1560000J-1235516D01*
G01*
X120729039Y-77920000D02*
G75*
G02*
X122810961Y-77920000I1040961J-1080000D01*
G01*
X122810961Y-80080000D02*
G75*
G02*
X120729039Y-80080000I-1040961J1080000D01*
G01*
X123441437Y-80080000D02*
G75*
G02*
X120210000Y-80235516I-1671437J1080000D01*
G01*
%TO.C,D6*%
X120210000Y-110264000D02*
X120210000Y-110420000D01*
X120210000Y-112580000D02*
X120210000Y-112736000D01*
X120210000Y-110264484D02*
G75*
G02*
X123441437Y-110420000I1560000J-1235516D01*
G01*
X120729039Y-110420000D02*
G75*
G02*
X122810961Y-110420000I1040961J-1080000D01*
G01*
X122810961Y-112580000D02*
G75*
G02*
X120729039Y-112580000I-1040961J1080000D01*
G01*
X123441437Y-112580000D02*
G75*
G02*
X120210000Y-112735516I-1671437J1080000D01*
G01*
%TO.C,D5*%
X120210000Y-96764000D02*
X120210000Y-96920000D01*
X120210000Y-99080000D02*
X120210000Y-99236000D01*
X120210000Y-96764484D02*
G75*
G02*
X123441437Y-96920000I1560000J-1235516D01*
G01*
X120729039Y-96920000D02*
G75*
G02*
X122810961Y-96920000I1040961J-1080000D01*
G01*
X122810961Y-99080000D02*
G75*
G02*
X120729039Y-99080000I-1040961J1080000D01*
G01*
X123441437Y-99080000D02*
G75*
G02*
X120210000Y-99235516I-1671437J1080000D01*
G01*
%TO.C,D2*%
X120210000Y-90264000D02*
X120210000Y-90420000D01*
X120210000Y-92580000D02*
X120210000Y-92736000D01*
X120210000Y-90264484D02*
G75*
G02*
X123441437Y-90420000I1560000J-1235516D01*
G01*
X120729039Y-90420000D02*
G75*
G02*
X122810961Y-90420000I1040961J-1080000D01*
G01*
X122810961Y-92580000D02*
G75*
G02*
X120729039Y-92580000I-1040961J1080000D01*
G01*
X123441437Y-92580000D02*
G75*
G02*
X120210000Y-92735516I-1671437J1080000D01*
G01*
%TO.C,D1*%
X120210000Y-83764000D02*
X120210000Y-83920000D01*
X120210000Y-86080000D02*
X120210000Y-86236000D01*
X120210000Y-83764484D02*
G75*
G02*
X123441437Y-83920000I1560000J-1235516D01*
G01*
X120729039Y-83920000D02*
G75*
G02*
X122810961Y-83920000I1040961J-1080000D01*
G01*
X122810961Y-86080000D02*
G75*
G02*
X120729039Y-86080000I-1040961J1080000D01*
G01*
X123441437Y-86080000D02*
G75*
G02*
X120210000Y-86235516I-1671437J1080000D01*
G01*
%TO.C,C4*%
X163630000Y-94130000D02*
X171370000Y-94130000D01*
X163630000Y-96870000D02*
X163630000Y-94130000D01*
X171370000Y-94130000D02*
X171370000Y-96870000D01*
X171370000Y-96870000D02*
X163630000Y-96870000D01*
%TO.C,C3*%
X163695225Y-86025000D02*
X164195225Y-86025000D01*
X163945225Y-85775000D02*
X163945225Y-86275000D01*
X166500000Y-84920000D02*
X166500000Y-86460000D01*
X166500000Y-88540000D02*
X166500000Y-90080000D01*
X166540000Y-84920000D02*
X166540000Y-86460000D01*
X166540000Y-88540000D02*
X166540000Y-90080000D01*
X166580000Y-84921000D02*
X166580000Y-86460000D01*
X166580000Y-88540000D02*
X166580000Y-90079000D01*
X166620000Y-84923000D02*
X166620000Y-86460000D01*
X166620000Y-88540000D02*
X166620000Y-90077000D01*
X166660000Y-84925000D02*
X166660000Y-86460000D01*
X166660000Y-88540000D02*
X166660000Y-90075000D01*
X166700000Y-84928000D02*
X166700000Y-86460000D01*
X166700000Y-88540000D02*
X166700000Y-90072000D01*
X166740000Y-84931000D02*
X166740000Y-86460000D01*
X166740000Y-88540000D02*
X166740000Y-90069000D01*
X166780000Y-84935000D02*
X166780000Y-86460000D01*
X166780000Y-88540000D02*
X166780000Y-90065000D01*
X166820000Y-84940000D02*
X166820000Y-86460000D01*
X166820000Y-88540000D02*
X166820000Y-90060000D01*
X166860000Y-84945000D02*
X166860000Y-86460000D01*
X166860000Y-88540000D02*
X166860000Y-90055000D01*
X166900000Y-84951000D02*
X166900000Y-86460000D01*
X166900000Y-88540000D02*
X166900000Y-90049000D01*
X166940000Y-84957000D02*
X166940000Y-86460000D01*
X166940000Y-88540000D02*
X166940000Y-90043000D01*
X166980000Y-84964000D02*
X166980000Y-86460000D01*
X166980000Y-88540000D02*
X166980000Y-90036000D01*
X167020000Y-84972000D02*
X167020000Y-86460000D01*
X167020000Y-88540000D02*
X167020000Y-90028000D01*
X167060000Y-84981000D02*
X167060000Y-86460000D01*
X167060000Y-88540000D02*
X167060000Y-90019000D01*
X167100000Y-84990000D02*
X167100000Y-86460000D01*
X167100000Y-88540000D02*
X167100000Y-90010000D01*
X167140000Y-84999000D02*
X167140000Y-86460000D01*
X167140000Y-88540000D02*
X167140000Y-90001000D01*
X167180000Y-85010000D02*
X167180000Y-86460000D01*
X167180000Y-88540000D02*
X167180000Y-89990000D01*
X167220000Y-85021000D02*
X167220000Y-86460000D01*
X167220000Y-88540000D02*
X167220000Y-89979000D01*
X167260000Y-85033000D02*
X167260000Y-86460000D01*
X167260000Y-88540000D02*
X167260000Y-89967000D01*
X167300000Y-85045000D02*
X167300000Y-86460000D01*
X167300000Y-88540000D02*
X167300000Y-89955000D01*
X167340000Y-85058000D02*
X167340000Y-86460000D01*
X167340000Y-88540000D02*
X167340000Y-89942000D01*
X167380000Y-85072000D02*
X167380000Y-86460000D01*
X167380000Y-88540000D02*
X167380000Y-89928000D01*
X167420000Y-85087000D02*
X167420000Y-86460000D01*
X167420000Y-88540000D02*
X167420000Y-89913000D01*
X167460000Y-85102000D02*
X167460000Y-86460000D01*
X167460000Y-88540000D02*
X167460000Y-89898000D01*
X167500000Y-85118000D02*
X167500000Y-86460000D01*
X167500000Y-88540000D02*
X167500000Y-89882000D01*
X167540000Y-85135000D02*
X167540000Y-86460000D01*
X167540000Y-88540000D02*
X167540000Y-89865000D01*
X167580000Y-85153000D02*
X167580000Y-86460000D01*
X167580000Y-88540000D02*
X167580000Y-89847000D01*
X167620000Y-85171000D02*
X167620000Y-86460000D01*
X167620000Y-88540000D02*
X167620000Y-89829000D01*
X167660000Y-85191000D02*
X167660000Y-86460000D01*
X167660000Y-88540000D02*
X167660000Y-89809000D01*
X167700000Y-85211000D02*
X167700000Y-86460000D01*
X167700000Y-88540000D02*
X167700000Y-89789000D01*
X167740000Y-85232000D02*
X167740000Y-86460000D01*
X167740000Y-88540000D02*
X167740000Y-89768000D01*
X167780000Y-85254000D02*
X167780000Y-86460000D01*
X167780000Y-88540000D02*
X167780000Y-89746000D01*
X167820000Y-85277000D02*
X167820000Y-86460000D01*
X167820000Y-88540000D02*
X167820000Y-89723000D01*
X167860000Y-85301000D02*
X167860000Y-86460000D01*
X167860000Y-88540000D02*
X167860000Y-89699000D01*
X167900000Y-85325000D02*
X167900000Y-86460000D01*
X167900000Y-88540000D02*
X167900000Y-89675000D01*
X167940000Y-85351000D02*
X167940000Y-86460000D01*
X167940000Y-88540000D02*
X167940000Y-89649000D01*
X167980000Y-85378000D02*
X167980000Y-86460000D01*
X167980000Y-88540000D02*
X167980000Y-89622000D01*
X168020000Y-85406000D02*
X168020000Y-86460000D01*
X168020000Y-88540000D02*
X168020000Y-89594000D01*
X168060000Y-85435000D02*
X168060000Y-86460000D01*
X168060000Y-88540000D02*
X168060000Y-89565000D01*
X168100000Y-85465000D02*
X168100000Y-86460000D01*
X168100000Y-88540000D02*
X168100000Y-89535000D01*
X168140000Y-85497000D02*
X168140000Y-86460000D01*
X168140000Y-88540000D02*
X168140000Y-89503000D01*
X168180000Y-85530000D02*
X168180000Y-86460000D01*
X168180000Y-88540000D02*
X168180000Y-89470000D01*
X168220000Y-85564000D02*
X168220000Y-86460000D01*
X168220000Y-88540000D02*
X168220000Y-89436000D01*
X168260000Y-85599000D02*
X168260000Y-86460000D01*
X168260000Y-88540000D02*
X168260000Y-89401000D01*
X168300000Y-85636000D02*
X168300000Y-86460000D01*
X168300000Y-88540000D02*
X168300000Y-89364000D01*
X168340000Y-85675000D02*
X168340000Y-86460000D01*
X168340000Y-88540000D02*
X168340000Y-89325000D01*
X168380000Y-85715000D02*
X168380000Y-86460000D01*
X168380000Y-88540000D02*
X168380000Y-89285000D01*
X168420000Y-85757000D02*
X168420000Y-86460000D01*
X168420000Y-88540000D02*
X168420000Y-89243000D01*
X168460000Y-85801000D02*
X168460000Y-86460000D01*
X168460000Y-88540000D02*
X168460000Y-89199000D01*
X168500000Y-85848000D02*
X168500000Y-86460000D01*
X168500000Y-88540000D02*
X168500000Y-89152000D01*
X168540000Y-85896000D02*
X168540000Y-89104000D01*
X168580000Y-85947000D02*
X168580000Y-89053000D01*
X168620000Y-86001000D02*
X168620000Y-88999000D01*
X168660000Y-86057000D02*
X168660000Y-88943000D01*
X168700000Y-86117000D02*
X168700000Y-88883000D01*
X168740000Y-86181000D02*
X168740000Y-88819000D01*
X168780000Y-86249000D02*
X168780000Y-88751000D01*
X168820000Y-86323000D02*
X168820000Y-88677000D01*
X168860000Y-86402000D02*
X168860000Y-88598000D01*
X168900000Y-86489000D02*
X168900000Y-88511000D01*
X168940000Y-86586000D02*
X168940000Y-88414000D01*
X168980000Y-86695000D02*
X168980000Y-88305000D01*
X169020000Y-86823000D02*
X169020000Y-88177000D01*
X169060000Y-86983000D02*
X169060000Y-88017000D01*
X169100000Y-87217000D02*
X169100000Y-87783000D01*
X169120000Y-87500000D02*
G75*
G02*
X163880000Y-87500000I-2620000J0D01*
G01*
X163880000Y-87500000D02*
G75*
G02*
X169120000Y-87500000I2620000J0D01*
G01*
%TD*%
M02*
