%TF.GenerationSoftware,KiCad,Pcbnew,10.0.1*%
%TF.CreationDate,2026-05-04T19:26:38-07:00*%
%TF.ProjectId,555chaser,35353563-6861-4736-9572-2e6b69636164,rev?*%
%TF.SameCoordinates,Original*%
%TF.FileFunction,Profile,NP*%
%FSLAX46Y46*%
G04 Gerber Fmt 4.6, Leading zero omitted, Abs format (unit mm)*
G04 Created by KiCad (PCBNEW 10.0.1) date 2026-05-04 19:26:38*
%MOMM*%
%LPD*%
G01*
G04 APERTURE LIST*
%TA.AperFunction,Profile*%
%ADD10C,0.000000*%
%TD*%
G04 APERTURE END LIST*
D10*
X143826576Y-146539346D02*
X142195547Y-145068888D01*
X146764365Y-149156881D02*
X143826576Y-146539346D01*
X149039821Y-151142513D02*
X146764365Y-149156881D01*
X150145707Y-152072172D02*
X149039821Y-151142513D01*
X150532228Y-152369029D02*
X150145707Y-152072172D01*
X150607330Y-152409295D02*
X150532228Y-152369029D01*
X150687723Y-152369131D02*
X150607330Y-152409295D01*
X151115064Y-152046406D02*
X150687723Y-152369131D01*
X152349870Y-151019097D02*
X151115064Y-152046406D01*
X154901586Y-148811101D02*
X152349870Y-151019097D01*
X158204214Y-145890615D02*
X154901586Y-148811101D01*
X160040386Y-144246882D02*
X158204214Y-145890615D01*
X164077398Y-140630482D02*
X160040386Y-144246882D01*
X170391038Y-135009997D02*
X164077398Y-140630482D01*
X174032765Y-131789889D02*
X170391038Y-135009997D01*
X175493277Y-130506965D02*
X174032765Y-131789889D01*
X178071212Y-128220103D02*
X175493277Y-130506965D01*
X182467336Y-124127876D02*
X178071212Y-128220103D01*
X185906135Y-120620851D02*
X182467336Y-124127876D01*
X188454404Y-117630909D02*
X185906135Y-120620851D01*
X189415464Y-116308558D02*
X188454404Y-117630909D01*
X190529881Y-114565639D02*
X189415464Y-116308558D01*
X192456597Y-110938188D02*
X190529881Y-114565639D01*
X193973561Y-107162369D02*
X192456597Y-110938188D01*
X195072473Y-103286688D02*
X193973561Y-107162369D01*
X195745016Y-99359664D02*
X195072473Y-103286688D01*
X195982884Y-95429815D02*
X195745016Y-99359664D01*
X195777771Y-91545651D02*
X195982884Y-95429815D01*
X195121364Y-87755695D02*
X195777771Y-91545651D01*
X194621334Y-85911201D02*
X195121364Y-87755695D01*
X194011353Y-84164299D02*
X194621334Y-85911201D01*
X192427310Y-80929761D02*
X194011353Y-84164299D01*
X190392533Y-78065971D02*
X192427310Y-80929761D01*
X187948638Y-75603024D02*
X190392533Y-78065971D01*
X185137250Y-73571007D02*
X187948638Y-75603024D01*
X182000000Y-72000000D02*
X185137250Y-73571007D01*
X178578513Y-70920096D02*
X182000000Y-72000000D01*
X174914422Y-70361383D02*
X178578513Y-70920096D01*
X173004407Y-70286871D02*
X174914422Y-70361383D01*
X169889189Y-70442598D02*
X173004407Y-70286871D01*
X164159381Y-71738867D02*
X169889189Y-70442598D01*
X159065637Y-74364449D02*
X164159381Y-71738867D01*
X154570189Y-78338816D02*
X159065637Y-74364449D01*
X152535019Y-80837872D02*
X154570189Y-78338816D01*
X151844367Y-81750257D02*
X152535019Y-80837872D01*
X151012640Y-82762149D02*
X151844367Y-81750257D01*
X150686193Y-83089695D02*
X151012640Y-82762149D01*
X150615010Y-83121254D02*
X150686193Y-83089695D01*
X150413505Y-82908711D02*
X150615010Y-83121254D01*
X149423198Y-81647683D02*
X150413505Y-82908711D01*
X148756376Y-80754512D02*
X149423198Y-81647683D01*
X147316450Y-78949299D02*
X148756376Y-80754512D01*
X144128748Y-75808300D02*
X147316450Y-78949299D01*
X140578737Y-73326887D02*
X144128748Y-75808300D01*
X136724238Y-71545457D02*
X140578737Y-73326887D01*
X134700861Y-70929859D02*
X136724238Y-71545457D01*
X133316044Y-70647728D02*
X134700861Y-70929859D01*
X130069756Y-70330267D02*
X133316044Y-70647728D01*
X126625176Y-70340568D02*
X130069756Y-70330267D01*
X123506991Y-70677060D02*
X126625176Y-70340568D01*
X122234266Y-70967140D02*
X123506991Y-70677060D01*
X120156746Y-71680212D02*
X122234266Y-70967140D01*
X116191728Y-73688228D02*
X120156746Y-71680212D01*
X112678145Y-76323501D02*
X116191728Y-73688228D01*
X109853678Y-79407758D02*
X112678145Y-76323501D01*
X108774139Y-81062552D02*
X109853678Y-79407758D01*
X107525168Y-83638293D02*
X108774139Y-81062552D01*
X105884829Y-89422334D02*
X107525168Y-83638293D01*
X105407404Y-95790550D02*
X105884829Y-89422334D01*
X106116204Y-102431916D02*
X105407404Y-95790550D01*
X106922717Y-105757834D02*
X106116204Y-102431916D01*
X107962152Y-108898567D02*
X106922717Y-105757834D01*
X109991284Y-113245009D02*
X107962152Y-108898567D01*
X111792372Y-116072819D02*
X109991284Y-113245009D01*
X114060136Y-118983392D02*
X111792372Y-116072819D01*
X116887149Y-122095552D02*
X114060136Y-118983392D01*
X120365993Y-125528108D02*
X116887149Y-122095552D01*
X124589235Y-129399880D02*
X120365993Y-125528108D01*
X127008941Y-131537605D02*
X124589235Y-129399880D01*
X128600272Y-132935116D02*
X127008941Y-131537605D01*
X132357514Y-136259547D02*
X128600272Y-132935116D01*
X136465616Y-139919868D02*
X132357514Y-136259547D01*
X140426247Y-143472078D02*
X136465616Y-139919868D01*
X142195547Y-145068888D02*
X140426247Y-143472078D01*
M02*
