M48
; DRILL file KiCad 10.0.1 date 2026-05-04T19:26:47
; FORMAT={-:-/ absolute / metric / decimal}
; #@! TF.CreationDate,2026-05-04T19:26:47-07:00
; #@! TF.GenerationSoftware,Kicad,Pcbnew,10.0.1
; #@! TF.FileFunction,Plated,1,2,PTH
FMAT,2
METRIC
; #@! TA.AperFunction,Plated,PTH,ViaDrill
T1C0.300
; #@! TA.AperFunction,Plated,PTH,ComponentDrill
T2C0.787
; #@! TA.AperFunction,Plated,PTH,ComponentDrill
T3C0.800
; #@! TA.AperFunction,Plated,PTH,ComponentDrill
T4C0.850
; #@! TA.AperFunction,Plated,PTH,ComponentDrill
T5C0.900
; #@! TA.AperFunction,Plated,PTH,ComponentDrill
T6C1.000
%
G90
G05
T1
X128.94Y-101.5
T2
X136.19Y-86.11
X136.19Y-88.65
X136.19Y-91.19
X136.19Y-93.73
X136.19Y-96.27
X136.19Y-98.81
X136.19Y-101.35
X136.19Y-103.89
X143.81Y-86.11
X143.81Y-88.65
X143.81Y-91.19
X143.81Y-93.73
X143.81Y-96.27
X143.81Y-98.81
X143.81Y-101.35
X143.81Y-103.89
T3
X150.5Y-107.5
X150.5Y-112.0
X151.19Y-85.69
X151.19Y-93.31
X153.73Y-85.69
X153.73Y-93.31
X156.27Y-85.69
X156.27Y-93.31
X158.12Y-107.5
X158.12Y-112.0
X158.81Y-85.69
X158.81Y-93.31
X165.5Y-87.5
X167.5Y-87.5
T4
X152.0Y-99.5
X154.54Y-99.5
X157.08Y-99.5
T5
X120.5Y-79.0
X120.5Y-85.0
X120.5Y-91.5
X120.5Y-98.0
X120.5Y-104.5
X120.5Y-111.5
X120.5Y-118.0
X123.04Y-79.0
X123.04Y-85.0
X123.04Y-91.5
X123.04Y-98.0
X123.04Y-104.5
X123.04Y-111.5
X123.04Y-118.0
X127.0Y-118.0
X129.54Y-118.0
X134.0Y-118.0
X136.54Y-118.0
X140.5Y-118.0
X143.04Y-118.0
T6
X165.0Y-95.5
X165.5Y-101.5
X168.04Y-101.5
X170.0Y-95.5
M30
