%TF.GenerationSoftware,KiCad,Pcbnew,10.0.1*%
%TF.CreationDate,2026-05-04T19:26:38-07:00*%
%TF.ProjectId,555chaser,35353563-6861-4736-9572-2e6b69636164,rev?*%
%TF.SameCoordinates,Original*%
%TF.FileFunction,Copper,L1,Top*%
%TF.FilePolarity,Positive*%
%FSLAX46Y46*%
G04 Gerber Fmt 4.6, Leading zero omitted, Abs format (unit mm)*
G04 Created by KiCad (PCBNEW 10.0.1) date 2026-05-04 19:26:38*
%MOMM*%
%LPD*%
G01*
G04 APERTURE LIST*
G04 Aperture macros list*
%AMRoundRect*
0 Rectangle with rounded corners*
0 $1 Rounding radius*
0 $2 $3 $4 $5 $6 $7 $8 $9 X,Y pos of 4 corners*
0 Add a 4 corners polygon primitive as box body*
4,1,4,$2,$3,$4,$5,$6,$7,$8,$9,$2,$3,0*
0 Add four circle primitives for the rounded corners*
1,1,$1+$1,$2,$3*
1,1,$1+$1,$4,$5*
1,1,$1+$1,$6,$7*
1,1,$1+$1,$8,$9*
0 Add four rect primitives between the rounded corners*
20,1,$1+$1,$2,$3,$4,$5,0*
20,1,$1+$1,$4,$5,$6,$7,0*
20,1,$1+$1,$6,$7,$8,$9,0*
20,1,$1+$1,$8,$9,$2,$3,0*%
G04 Aperture macros list end*
%TA.AperFunction,ComponentPad*%
%ADD10C,1.700000*%
%TD*%
%TA.AperFunction,ComponentPad*%
%ADD11R,1.700000X1.700000*%
%TD*%
%TA.AperFunction,ComponentPad*%
%ADD12C,1.295400*%
%TD*%
%TA.AperFunction,ComponentPad*%
%ADD13R,1.295400X1.295400*%
%TD*%
%TA.AperFunction,ComponentPad*%
%ADD14RoundRect,0.250000X0.550000X-0.550000X0.550000X0.550000X-0.550000X0.550000X-0.550000X-0.550000X0*%
%TD*%
%TA.AperFunction,ComponentPad*%
%ADD15C,1.600000*%
%TD*%
%TA.AperFunction,ComponentPad*%
%ADD16RoundRect,0.412500X-0.412500X-0.412500X0.412500X-0.412500X0.412500X0.412500X-0.412500X0.412500X0*%
%TD*%
%TA.AperFunction,ComponentPad*%
%ADD17C,1.650000*%
%TD*%
%TA.AperFunction,ComponentPad*%
%ADD18R,1.800000X1.800000*%
%TD*%
%TA.AperFunction,ComponentPad*%
%ADD19C,1.800000*%
%TD*%
%TA.AperFunction,ComponentPad*%
%ADD20C,2.000000*%
%TD*%
%TA.AperFunction,ComponentPad*%
%ADD21RoundRect,0.250000X-0.550000X-0.550000X0.550000X-0.550000X0.550000X0.550000X-0.550000X0.550000X0*%
%TD*%
%TA.AperFunction,ViaPad*%
%ADD22C,0.600000*%
%TD*%
%TA.AperFunction,Conductor*%
%ADD23C,0.200000*%
%TD*%
G04 APERTURE END LIST*
D10*
%TO.P,J1,2,Pin_2_2*%
%TO.N,GND*%
X168040000Y-101500000D03*
D11*
%TO.P,J1,1,Pin_1_1*%
%TO.N,+5V*%
X165500000Y-101500000D03*
%TD*%
D12*
%TO.P,U2,16,VDD_16*%
%TO.N,+5V*%
X143810000Y-86110000D03*
%TO.P,U2,15,Reset_15*%
%TO.N,GND*%
X143810000Y-88650000D03*
%TO.P,U2,14,CLK_14*%
%TO.N,OUT*%
X143810000Y-91190000D03*
%TO.P,U2,13,CKEN_13*%
%TO.N,GND*%
X143810000Y-93730000D03*
%TO.P,U2,12,Cout_12*%
%TO.N,unconnected-(U2-Cout-Pad12)*%
X143810000Y-96270000D03*
%TO.P,U2,11,Q9_11*%
%TO.N,Net-(D1-A)*%
X143810000Y-98810000D03*
%TO.P,U2,10,Q4_10*%
%TO.N,Net-(D8-A)*%
X143810000Y-101350000D03*
%TO.P,U2,9,Q8_9*%
%TO.N,Net-(D5-A)*%
X143810000Y-103890000D03*
%TO.P,U2,8,VSS_8*%
%TO.N,GND*%
X136190000Y-103890000D03*
%TO.P,U2,7,Q3_7*%
%TO.N,Net-(D9-A)*%
X136190000Y-101350000D03*
%TO.P,U2,6,Q7_6*%
%TO.N,Net-(D6-A)*%
X136190000Y-98810000D03*
%TO.P,U2,5,Q6_5*%
%TO.N,Net-(D2-A)*%
X136190000Y-96270000D03*
%TO.P,U2,4,Q2_4*%
%TO.N,Net-(D10-A)*%
X136190000Y-93730000D03*
%TO.P,U2,3,Q0_3*%
%TO.N,Net-(D12-A)*%
X136190000Y-91190000D03*
%TO.P,U2,2,Q1_2*%
%TO.N,Net-(D11-A)*%
X136190000Y-88650000D03*
D13*
%TO.P,U2,1,Q5_1*%
%TO.N,Net-(D7-A)*%
X136190000Y-86110000D03*
%TD*%
D14*
%TO.P,U1,1,GND_1*%
%TO.N,GND*%
X151190000Y-93310000D03*
D15*
%TO.P,U1,2,TRIG_2*%
%TO.N,TR*%
X153730000Y-93310000D03*
%TO.P,U1,3,OUT_3*%
%TO.N,OUT*%
X156270000Y-93310000D03*
%TO.P,U1,4,~{RST}_4*%
%TO.N,+5V*%
X158810000Y-93310000D03*
%TO.P,U1,5,CONT_5*%
%TO.N,Net-(U1-CONT)*%
X158810000Y-85690000D03*
%TO.P,U1,6,THRES_6*%
%TO.N,TR*%
X156270000Y-85690000D03*
%TO.P,U1,7,DISCH_7*%
X153730000Y-85690000D03*
%TO.P,U1,8,VCC_8*%
%TO.N,+5V*%
X151190000Y-85690000D03*
%TD*%
D16*
%TO.P,RV1,1,1_1*%
%TO.N,Net-(R1-Pad1)*%
X152000000Y-99500000D03*
D17*
%TO.P,RV1,2,2_2*%
%TO.N,TR*%
X154540000Y-99500000D03*
%TO.P,RV1,3,3_3*%
X157080000Y-99500000D03*
%TD*%
D15*
%TO.P,R4,1*%
%TO.N,Net-(D1-K)*%
X150500000Y-112000000D03*
%TO.P,R4,2*%
%TO.N,GND*%
X158120000Y-112000000D03*
%TD*%
%TO.P,R1,1*%
%TO.N,Net-(R1-Pad1)*%
X150500000Y-107500000D03*
%TO.P,R1,2*%
%TO.N,+5V*%
X158120000Y-107500000D03*
%TD*%
D18*
%TO.P,D12,1,K_1*%
%TO.N,Net-(D1-K)*%
X120500000Y-104500000D03*
D19*
%TO.P,D12,2,A_2*%
%TO.N,Net-(D12-A)*%
X123040000Y-104500000D03*
%TD*%
D18*
%TO.P,D11,1,K_1*%
%TO.N,Net-(D1-K)*%
X127000000Y-118000000D03*
D19*
%TO.P,D11,2,A_2*%
%TO.N,Net-(D11-A)*%
X129540000Y-118000000D03*
%TD*%
D18*
%TO.P,D10,1,K_1*%
%TO.N,Net-(D1-K)*%
X134000000Y-118000000D03*
D19*
%TO.P,D10,2,A_2*%
%TO.N,Net-(D10-A)*%
X136540000Y-118000000D03*
%TD*%
D18*
%TO.P,D9,1,K_1*%
%TO.N,Net-(D1-K)*%
X140500000Y-118000000D03*
D19*
%TO.P,D9,2,A_2*%
%TO.N,Net-(D9-A)*%
X143040000Y-118000000D03*
%TD*%
D18*
%TO.P,D8,1,K_1*%
%TO.N,Net-(D1-K)*%
X120500000Y-118000000D03*
D19*
%TO.P,D8,2,A_2*%
%TO.N,Net-(D8-A)*%
X123040000Y-118000000D03*
%TD*%
D18*
%TO.P,D7,1,K_1*%
%TO.N,Net-(D1-K)*%
X120500000Y-79000000D03*
D19*
%TO.P,D7,2,A_2*%
%TO.N,Net-(D7-A)*%
X123040000Y-79000000D03*
%TD*%
D18*
%TO.P,D6,1,K_1*%
%TO.N,Net-(D1-K)*%
X120500000Y-111500000D03*
D19*
%TO.P,D6,2,A_2*%
%TO.N,Net-(D6-A)*%
X123040000Y-111500000D03*
%TD*%
D18*
%TO.P,D5,1,K_1*%
%TO.N,Net-(D1-K)*%
X120500000Y-98000000D03*
D19*
%TO.P,D5,2,A_2*%
%TO.N,Net-(D5-A)*%
X123040000Y-98000000D03*
%TD*%
D18*
%TO.P,D2,1,K_1*%
%TO.N,Net-(D1-K)*%
X120500000Y-91500000D03*
D19*
%TO.P,D2,2,A_2*%
%TO.N,Net-(D2-A)*%
X123040000Y-91500000D03*
%TD*%
D18*
%TO.P,D1,1,K_1*%
%TO.N,Net-(D1-K)*%
X120500000Y-85000000D03*
D19*
%TO.P,D1,2,A_2*%
%TO.N,Net-(D1-A)*%
X123040000Y-85000000D03*
%TD*%
D20*
%TO.P,C4,1*%
%TO.N,GND*%
X165000000Y-95500000D03*
%TO.P,C4,2*%
%TO.N,Net-(U1-CONT)*%
X170000000Y-95500000D03*
%TD*%
D21*
%TO.P,C3,1*%
%TO.N,TR*%
X165500000Y-87500000D03*
D15*
%TO.P,C3,2*%
%TO.N,GND*%
X167500000Y-87500000D03*
%TD*%
D22*
%TO.N,Net-(D5-A)*%
X128940000Y-101500000D03*
%TD*%
%TO.N,Net-(D7-A)*%
D23*
X130150000Y-86110000D02*
X123040000Y-79000000D01*
X136190000Y-86110000D02*
X130150000Y-86110000D01*
%TO.N,TR*%
X154540000Y-94120000D02*
X153730000Y-93310000D01*
X154540000Y-99500000D02*
X154540000Y-94120000D01*
%TO.N,Net-(D5-A)*%
X126540000Y-101500000D02*
X128940000Y-101500000D01*
X123040000Y-98000000D02*
X126540000Y-101500000D01*
%TO.N,Net-(D2-A)*%
X137137700Y-95322300D02*
X136190000Y-96270000D01*
X137137700Y-88257449D02*
X137137700Y-95322300D01*
X136582551Y-87702300D02*
X137137700Y-88257449D01*
X126837700Y-87702300D02*
X136582551Y-87702300D01*
X123040000Y-91500000D02*
X126837700Y-87702300D01*
%TO.N,+5V*%
X165500000Y-100000000D02*
X158810000Y-93310000D01*
X165500000Y-101500000D02*
X165500000Y-100000000D01*
X159500000Y-107500000D02*
X165500000Y-101500000D01*
X158120000Y-107500000D02*
X159500000Y-107500000D01*
%TO.N,Net-(R1-Pad1)*%
X150500000Y-101000000D02*
X152000000Y-99500000D01*
X150500000Y-107500000D02*
X150500000Y-101000000D01*
%TO.N,GND*%
X142862300Y-92782300D02*
X142862300Y-89597700D01*
X143810000Y-93730000D02*
X142862300Y-92782300D01*
X142862300Y-89597700D02*
X143810000Y-88650000D01*
X150770000Y-93730000D02*
X151190000Y-93310000D01*
X143810000Y-93730000D02*
X150770000Y-93730000D01*
%TO.N,OUT*%
X154150000Y-91190000D02*
X156270000Y-93310000D01*
X143810000Y-91190000D02*
X154150000Y-91190000D01*
%TO.N,Net-(D11-A)*%
X129540000Y-95300000D02*
X136190000Y-88650000D01*
X129540000Y-118000000D02*
X129540000Y-95300000D01*
%TO.N,Net-(D10-A)*%
X135242300Y-116702300D02*
X135242300Y-94677700D01*
X136540000Y-118000000D02*
X135242300Y-116702300D01*
X135242300Y-94677700D02*
X136190000Y-93730000D01*
%TO.N,Net-(D9-A)*%
X143040000Y-108200000D02*
X136190000Y-101350000D01*
X143040000Y-118000000D02*
X143040000Y-108200000D01*
%TO.N,TR*%
X156270000Y-85690000D02*
X153730000Y-85690000D01*
%TO.N,+5V*%
X144230000Y-85690000D02*
X143810000Y-86110000D01*
X151190000Y-85690000D02*
X144230000Y-85690000D01*
X151190000Y-85690000D02*
X158810000Y-93310000D01*
%TO.N,TR*%
X156270000Y-84270000D02*
X156270000Y-85690000D01*
X156000000Y-83500000D02*
X156000000Y-84000000D01*
X161500000Y-83500000D02*
X156000000Y-83500000D01*
X156000000Y-84000000D02*
X156270000Y-84270000D01*
X165500000Y-87500000D02*
X161500000Y-83500000D01*
%TO.N,GND*%
X167500000Y-93000000D02*
X167500000Y-87500000D01*
X165000000Y-95500000D02*
X167500000Y-93000000D01*
X165000000Y-98460000D02*
X165000000Y-95500000D01*
X168040000Y-101500000D02*
X165000000Y-98460000D01*
X158120000Y-112000000D02*
X168040000Y-102080000D01*
X168040000Y-102080000D02*
X168040000Y-101500000D01*
%TO.N,Net-(D1-K)*%
X150500000Y-120000000D02*
X150500000Y-112000000D01*
X149000000Y-121500000D02*
X150500000Y-120000000D01*
X144000000Y-121500000D02*
X149000000Y-121500000D01*
X140500000Y-118000000D02*
X144000000Y-121500000D01*
X139300000Y-119200000D02*
X140500000Y-118000000D01*
X134000000Y-118000000D02*
X135200000Y-119200000D01*
X135200000Y-119200000D02*
X139300000Y-119200000D01*
X127000000Y-118000000D02*
X128200000Y-119200000D01*
X128200000Y-119200000D02*
X132800000Y-119200000D01*
X132800000Y-119200000D02*
X134000000Y-118000000D01*
X122500000Y-120000000D02*
X125000000Y-120000000D01*
X120500000Y-118000000D02*
X122500000Y-120000000D01*
X125000000Y-120000000D02*
X127000000Y-118000000D01*
X120500000Y-111500000D02*
X120500000Y-118000000D01*
X120500000Y-104500000D02*
X120500000Y-111500000D01*
X120500000Y-91500000D02*
X120500000Y-98000000D01*
X120500000Y-98000000D02*
X120500000Y-104500000D01*
X120500000Y-85000000D02*
X120500000Y-91500000D01*
X120500000Y-79000000D02*
X120500000Y-85000000D01*
%TO.N,TR*%
X154540000Y-99500000D02*
X157080000Y-99500000D01*
%TD*%
M02*
